<?xml version="1.0" encoding="UTF-8"?>
<svg id="Layer_1" data-name="Layer 1" xmlns="http://www.w3.org/2000/svg" xmlns:xlink="http://www.w3.org/1999/xlink" viewBox="0 0 1200 1200">
  <defs>
    <style>
      .cls-1 {
        fill: url(#linear-gradient-2);
      }

      .cls-2 {
        fill: #03346E;
      }

      .cls-3 {
        fill: url(#linear-gradient);
      }
    </style>
    <linearGradient id="linear-gradient" x1="375.43" y1="929.57" x2="871.43" y2="582.91" gradientUnits="userSpaceOnUse">
      <stop offset="0" stop-color="#1D24CA"/>
      <stop offset="1" stop-color="#525CEB"/>
    </linearGradient>
    <linearGradient id="linear-gradient-2" x1="271.65" y1="559.17" x2="928.35" y2="559.17" xlink:href="#linear-gradient"/>
  </defs>
  <path class="cls-3" d="M779.82,644.49c-70.04,56.28-164.22,97.22-296.4,128.85-20.03,5.49-38.36,11.65-55.02,18.49l-2.74,5.57c-4.45,42.22,24,73.33,24,73.33,10.15.34-6.78,21.06-8.65,23.33-4.62,5.62-9.58,10.99-14.86,16-6.34,6-11.73,10.52-12.99,19.81-.96,7.1.52,13.88,1.39,20.87.1.81,4.27,34.51,5.73,46.23l14.5-54.4c-1.33-.93-2.2-2.48-2.2-4.23,0-2.86,2.33-5.19,5.19-5.19s5.19,2.33,5.19,5.19-2.33,5.19-5.19,5.19c-.05,0-.09,0-.14-.01l-14.18,53.21c.62-.75,1.19-1.4,1.46-1.79,3.17-4.6,6.34-9.21,9.51-13.81,7.99-11.6,17.73-22.43,24.84-34.57,7.58-12.96,6.49-30.13,4.63-44.5-.78-6-5.9-23.38,3.99-24.66,83.71-10.87,135.14-32.22,179.11-56-33.22,6.84-62.72,7.37-87.55,0,127.84-2.4,206.22-73.34,233.77-120-8.88,5.77-37.44,5.44-37.44,5.44,78-29,98-105,112-147.67,2.04-6.22,3.48-12.5,4.46-18.7-24.86,39.98-55.11,74.04-92.43,104.02Z"/>
  <path class="cls-1" d="M656.11,404.51c34.39,2.43,60.57,4.29,75.33,5.33-142.59,26.8-258.41,86.75-305.33,232,266.67-92.67,416.67-208,482-439.33-27.27,137.15-62.89,273.77-299.33,397.33,0,0,53.33,13.33,65.33,21.33-5.4-.16-10.83-.23-16.22-.23-232.07-.01-452.33,143.76-367.78,360.23-16.97-111.44,48.46-184.81,189.33-223.33,245.33-58.67,383.38-155.08,436.67-365.33,0,0-27.33,20.67-36.67,26,48.08-55.7,61.54-148.16,36.67-281.33-44.43,97.47-116.54,189.46-260,267.33Z"/>
  <path class="cls-2" d="M293.45,989.17c49.25,60,131.67,69.94,261.4,8.46,15.82-7.49,32.18-13.8,48.95-18.8,86.37-25.75,158.9-26.3,210.98,10.34-68.79-81.35-199.41-48.09-346.67,16,181.01-114.34,319.67-124.06,388,40-50.29-77.15-144.1-85.31-281.33-24.67-142.79,60.99-243.51,60.67-281.33-31.33Z"/>
</svg>