<?xml version="1.0" encoding="UTF-8"?>
<!DOCTYPE svg PUBLIC "-//W3C//DTD SVG 1.1//EN" "http://www.w3.org/Graphics/SVG/1.1/DTD/svg11.dtd">
<svg xmlns="http://www.w3.org/2000/svg" version="1.1" width="512px" height="512px" style="shape-rendering:geometricPrecision; text-rendering:geometricPrecision; image-rendering:optimizeQuality; fill-rule:evenodd; clip-rule:evenodd" xmlns:xlink="http://www.w3.org/1999/xlink">
<g><path style="opacity:0.998" fill="#395B64" d="M 232.5,-0.5 C 247.833,-0.5 263.167,-0.5 278.5,-0.5C 368.144,10.3879 435.644,54.7213 481,132.5C 497.695,163.971 507.861,197.304 511.5,232.5C 511.5,247.833 511.5,263.167 511.5,278.5C 500.612,368.144 456.279,435.644 378.5,481C 347.029,497.695 313.696,507.861 278.5,511.5C 263.167,511.5 247.833,511.5 232.5,511.5C 142.856,500.612 75.3562,456.279 30,378.5C 13.3053,347.029 3.1386,313.696 -0.5,278.5C -0.5,263.167 -0.5,247.833 -0.5,232.5C 10.3875,142.857 54.7208,75.3573 132.5,30C 163.971,13.3053 197.304,3.1386 232.5,-0.5 Z"/></g>
<g><path style="opacity:1" fill="#000" d="M 315.5,137.5 C 325.506,137.334 335.506,137.5 345.5,138C 348.034,138.516 350.2,139.683 352,141.5C 353.198,164.1 346.198,183.767 331,200.5C 326.634,205.201 321.967,209.534 317,213.5C 310.874,226.464 301.707,236.797 289.5,244.5C 281.026,260.141 269.026,272.308 253.5,281C 223.096,296.685 190.763,305.352 156.5,307C 154.791,308.916 153.457,311.082 152.5,313.5C 160.121,315.146 167.121,318.146 173.5,322.5C 175.588,327.019 174.254,328.852 169.5,328C 163.38,322.961 156.38,320.961 148.5,322C 141.655,335.869 135.988,350.202 131.5,365C 161.46,369.144 191.46,369.478 221.5,366C 231.266,365.191 240.099,362.024 248,356.5C 248.875,355.127 249.375,353.627 249.5,352C 247.032,346.851 244.532,341.684 242,336.5C 241.124,325.438 245.957,317.938 256.5,314C 263.256,311.315 270.256,309.649 277.5,309C 305.853,308.89 334.187,308.224 362.5,307C 373.697,305.823 384.363,302.823 394.5,298C 396,296.5 397.5,295 399,293.5C 399.667,291.5 399.667,289.5 399,287.5C 393.108,279.783 385.608,274.117 376.5,270.5C 375.369,268.926 375.202,267.259 376,265.5C 376.725,264.941 377.558,264.608 378.5,264.5C 387.396,267.863 395.23,272.863 402,279.5C 407.542,285.942 407.875,292.608 403,299.5C 392.817,307.121 381.317,311.621 368.5,313C 362.515,313.799 356.515,314.465 350.5,315C 329.16,315.363 307.827,315.363 286.5,315C 277.248,315.369 268.248,317.035 259.5,320C 253.486,322.176 249.819,326.343 248.5,332.5C 249.835,337.506 252.001,342.172 255,346.5C 256.994,354.187 254.827,360.354 248.5,365C 237.182,370.556 225.182,373.556 212.5,374C 183.788,375.059 155.121,374.393 126.5,372C 124.59,371.592 123.59,370.425 123.5,368.5C 125.376,362.874 127.043,357.208 128.5,351.5C 120.06,351.532 112.56,348.866 106,343.5C 104.417,338.9 105.917,337.066 110.5,338C 116.525,343.62 123.525,345.454 131.5,343.5C 136.395,329.044 142.895,315.377 151,302.5C 150.581,270.991 156.248,240.658 168,211.5C 175.921,192.579 189.421,179.412 208.5,172C 211.5,171.667 214.5,171.333 217.5,171C 229.922,157.29 245.255,149.123 263.5,146.5C 269.743,146.86 275.576,148.527 281,151.5C 291.546,144.376 303.046,139.709 315.5,137.5 Z"/></g>
<g><path style="opacity:1" fill="#fff" d="M 323.5,143.5 C 329.842,143.334 336.175,143.5 342.5,144C 345.679,144.18 347.012,145.846 346.5,149C 342.165,177.352 327.831,199.019 303.5,214C 292.573,219.864 280.907,222.864 268.5,223C 267.065,225.267 267.398,227.267 269.5,229C 273.167,229.667 276.833,229.667 280.5,229C 289.178,226.883 297.512,224.216 305.5,221C 282.832,245.328 254.999,256.494 222,254.5C 221.289,256.367 221.789,257.867 223.5,259C 241.797,261.967 259.297,259.467 276,251.5C 276.667,252.167 276.667,252.833 276,253.5C 264.014,266.415 249.847,276.248 233.5,283C 209.313,292.138 184.313,297.638 158.5,299.5C 157.485,266.402 164.319,235.069 179,205.5C 185.865,193.284 195.698,184.784 208.5,180C 201.19,186.972 195.023,194.805 190,203.5C 188.417,208.1 189.917,209.934 194.5,209C 208.319,186.18 226.986,168.514 250.5,156C 258.651,152.517 266.651,152.683 274.5,156.5C 267.11,163.72 260.277,171.387 254,179.5C 252.487,182.024 251.82,184.691 252,187.5C 253.726,188.576 255.559,188.743 257.5,188C 260.471,181.889 264.304,176.389 269,171.5C 275.167,166 281.333,160.5 287.5,155C 298.83,148.675 310.83,144.842 323.5,143.5 Z"/></g>
</svg>
